<?xml version="1.0" encoding="utf-8"?>
<!-- Generator: Adobe Illustrator 21.1.0, SVG Export Plug-In . SVG Version: 6.00 Build 0)  -->
<svg version="1.1" id="Шар_1" xmlns="http://www.w3.org/2000/svg" xmlns:xlink="http://www.w3.org/1999/xlink" x="0px" y="0px"
	 viewBox="0 0 288 560" style="enable-background:new 0 0 288 560;" xml:space="preserve">
<style type="text/css">
	.st0{fill:none;stroke:#662D91;stroke-miterlimit:10;}
</style>
<g>
	<line class="st0" x1="71.7" y1="266.3" x2="142.7" y2="195.3"/>
	<line class="st0" x1="102.4" y1="291.1" x2="175" y2="219.8"/>
	<line class="st0" x1="175" y1="219.8" x2="142.7" y2="195.3"/>
	<line class="st0" x1="102.4" y1="291.1" x2="71.7" y2="266.3"/>
	<line class="st0" x1="150.8" y1="201.5" x2="78.4" y2="271.7"/>
	<line class="st0" x1="87" y1="278.7" x2="158.9" y2="207.6"/>
	<line class="st0" x1="94.8" y1="285" x2="167.8" y2="214.4"/>
	<path class="st0" d="M142.3,195.3c0-1.5,32.4-2.7,32.4-2.7"/>
	<path class="st0" d="M174.7,192.7c0,15,0.2,27.2,0.4,27.2"/>
	<line class="st0" x1="71.7" y1="266.3" x2="56" y2="280"/>
	<line class="st0" x1="72.1" y1="266.6" x2="55.7" y2="281.4"/>
	<line class="st0" x1="102.4" y1="291.1" x2="84.5" y2="308"/>
	<line class="st0" x1="101.7" y1="290.6" x2="83.2" y2="308.1"/>
	<path class="st0" d="M83.2,308.1c-13.8,2.2-27.5-7.7-27.5-26.7"/>
	<line class="st0" x1="55.7" y1="281.4" x2="83.2" y2="308.1"/>
	<line class="st0" x1="74.6" y1="268.6" x2="58.3" y2="284"/>
	<line class="st0" x1="77.5" y1="271" x2="60.5" y2="286.1"/>
	<line class="st0" x1="80.2" y1="273.2" x2="63" y2="288.6"/>
	<line class="st0" x1="82.8" y1="275.2" x2="65.5" y2="290.9"/>
	<line class="st0" x1="85.8" y1="277.7" x2="67.8" y2="293.2"/>
	<line class="st0" x1="88.7" y1="280" x2="70.4" y2="295.7"/>
	<line class="st0" x1="91" y1="281.9" x2="72.5" y2="297.7"/>
	<line class="st0" x1="93.4" y1="283.8" x2="74.3" y2="299.5"/>
	<line class="st0" x1="95.6" y1="285.6" x2="76.2" y2="301.4"/>
	<line class="st0" x1="97.8" y1="287.4" x2="77.9" y2="303"/>
	<line class="st0" x1="99.4" y1="288.6" x2="80" y2="305"/>
	<line class="st0" x1="100.8" y1="289.8" x2="81.7" y2="306.7"/>
</g>
</svg>
