<?xml version="1.0" encoding="utf-8"?>
<!-- Generator: Adobe Illustrator 21.1.0, SVG Export Plug-In . SVG Version: 6.00 Build 0)  -->
<svg version="1.1" xmlns="http://www.w3.org/2000/svg" xmlns:xlink="http://www.w3.org/1999/xlink" x="0px" y="0px"
	 viewBox="0 0 1174.4 665" style="enable-background:new 0 0 1174.4 665;" xml:space="preserve">
<style type="text/css">
	.st0{fill:#C27CB3;stroke:#000000;stroke-miterlimit:10;}
	.st1{fill:#724695;stroke:#020203;stroke-miterlimit:10;}
</style>
<g id="Guides">
</g>
<g id="Crop_Marks">
	<rect x="727" y="282.5" class="st0" width="0" height="10.5"/>
	<path class="st1" d="M637.5,94.3c0.2-2.5-1.7-4.6-4.2-4.8l-2.2-0.2c-0.5,0-1.1,0-1.6,0.2c-0.2,0-0.4,0-0.7,0h-356
		c-0.5-0.1-0.9-0.2-1.4-0.1l-2.2,0.2c-2.5,0.2-4.3,2.3-4.2,4.8l0.2,2.7c0,0.3,0,0.6,0.1,0.9l31.2,440.9c0.1,1.6,1,2.9,2.3,3.6
		c1.3,1.3,3.2,2.1,5.2,2.1h295c4.1,0,7.5-3.4,7.5-7.5c0-0.6-0.1-1.1-0.2-1.6L637.5,94.3z M335.9,527.3l-29.1-421.5
		c0-0.4-0.1-0.9-0.2-1.3h23.6c-0.2,0.6-0.2,1.2-0.2,1.8l23.4,421.9c0,0.5,0.1,0.9,0.2,1.3h-18C335.8,528.8,335.9,528.1,335.9,527.3z
		 M365,527.5l-23.4-421.9c0-0.4-0.1-0.8-0.2-1.2h25.4c-0.1,0.5-0.2,1-0.2,1.6l18,422.1c0,0.4,0.1,0.9,0.2,1.3h-20.1
		C365,528.9,365.1,528.2,365,527.5z M378.3,105.6c0-0.4-0.1-0.7-0.2-1.1h26c-0.5,0.9-0.8,1.9-0.7,2.9l7.8,422.1h-15.1
		c0.2-0.6,0.2-1.1,0.2-1.8L378.3,105.6z M415.1,107.2c0-1-0.3-1.9-0.7-2.7h29.1c-0.3,0.7-0.5,1.5-0.5,2.3l0,422.2c0,0.2,0,0.4,0,0.5
		h-20.1L415.1,107.2z M454.6,106.8c0-0.8-0.2-1.6-0.5-2.3h27.5c-0.2,0.6-0.3,1.1-0.3,1.8L474,528.4c0,0.4,0,0.8,0.1,1.1h-19.5
		c0-0.2,0-0.4,0-0.5L454.6,106.8z M485.6,528.6l7.3-422.1c0-0.7-0.1-1.3-0.3-2h26.6c-0.3,0.7-0.5,1.4-0.5,2.2l-14.1,422.8h-19.1
		C485.6,529.2,485.6,528.9,485.6,528.6z M530.3,107.1c0-0.9-0.2-1.8-0.5-2.6h27.7l-14.1,425h-27.1L530.3,107.1z M569.2,104.5h26.6
		c-0.5,0.8-0.9,1.8-0.9,2.8l-21.2,422.2h-18.6L569.2,104.5z M277,104.5h18.3c-0.2,0.7-0.3,1.3-0.2,2.1l29.1,421.5
		c0,0.5,0.1,1,0.3,1.4h-17.4L277,104.5z M595.5,529.5H587L608.2,108c0.1-1.3-0.3-2.5-1-3.5h18.3L595.5,529.5z"/>
	<path class="st1" d="M245.1,87.4l-0.7-5.4c-0.4-3.2,1.8-6.1,5-6.6l298.5-41.3c3.2-0.4,6.1,1.8,6.6,5l0.7,5.4c0.4,3.2-1.8,6.1-5,6.6
		L251.6,92.4C248.5,92.8,245.5,90.6,245.1,87.4z"/>
</g>
</svg>
